<?xml version="1.0" encoding="UTF-8" standalone="no"?>
<!-- Created with Inkscape (http://www.inkscape.org/) -->

<svg
   version="1.1"
   id="svg1"
   width="400"
   height="366"
   viewBox="0 0 400 366"
   xmlns="http://www.w3.org/2000/svg"
   xmlns:svg="http://www.w3.org/2000/svg">
  <defs
     id="defs1" />
  <path
     style="display:inline;fill:#000000;stroke-width:1.00264"
     d="M 61.632291,365.78669 C 56.201689,365.06033 46.304784,361.82305 40.405431,358.84354 26.161206,351.64957 14.301775,339.83302 7.1888831,325.74718 1.5177479,314.51651 0.03546258,307.81433 0.00110252,293.24756 -0.03606107,277.48996 0.83524161,273.5749 7.3647432,260.16002 11.336271,252.00054 13.36671,249.26914 21.526328,241.10967 c 7.82032,-7.82026 11.050815,-10.27238 18.047743,-13.69914 7.608495,-3.72626 14.637288,-6.35169 20.554244,-7.67736 1.938471,-0.43484 1.935969,-0.453 -0.07533,-0.566 -2.930304,-0.16166 -15.354796,-4.5264 -19.098746,-6.7062 l -3.131172,-1.82291 1.724237,-3.06266 c 2.167366,-3.84962 10.408633,-18.10774 20.605328,-35.64877 4.327614,-7.44469 8.853492,-15.34062 10.057494,-17.54644 1.204,-2.20587 4.278477,-7.52038 6.832169,-11.81004 2.553695,-4.2897 4.643078,-7.99619 4.643078,-8.23663 0,-0.24055 2.481567,-4.52966 5.514589,-9.53158 3.033021,-5.00191 5.514588,-9.28812 5.514588,-9.5249 0,-0.23674 1.958183,-3.71766 4.351513,-7.7353 2.393367,-4.01761 6.499077,-11.030686 9.123857,-15.584618 l 4.77233,-8.279846 4.00057,2.248439 c 2.20032,1.236728 6.68101,4.759786 9.95707,7.82919 3.2761,3.069422 5.70012,4.912606 5.38677,4.095987 -1.67146,-4.355514 -4.50455,-19.88173 -4.50455,-24.685518 0,-8.617355 3.66098,-23.191494 8.0771,-32.15426 C 143.09517,22.306695 158.13795,9.5483958 179.44398,2.3659988 185.44451,0.34320406 188.42607,0 199.99838,0 c 11.57235,0 14.55384,0.34320039 20.55435,2.3659988 21.30151,7.1808734 36.66316,20.2105362 45.64309,38.7144942 4.33236,8.927072 7.99884,23.63409 7.99884,32.084881 0,4.803788 -2.83315,20.330004 -4.50455,24.685518 -0.31401,0.816735 2.11063,-1.026552 5.38677,-4.095987 3.27608,-3.069404 7.75677,-6.592535 9.95708,-7.82919 l 4.00056,-2.248439 4.77236,8.279846 c 2.62475,4.553932 6.73044,11.567008 9.12376,15.584648 2.39337,4.01765 4.35159,7.49854 4.35159,7.7353 0,0.23674 2.48153,4.52299 5.51453,9.5249 3.03304,5.0019 5.5146,9.29111 5.5146,9.53156 0,0.24055 2.08939,3.94696 4.64304,8.23666 2.55372,4.28966 5.62823,9.60417 6.83219,11.81001 1.204,2.20585 5.72991,10.10178 10.05752,17.54644 10.19669,17.54103 18.43795,31.79918 20.60529,35.6488 l 1.72421,3.06269 -3.13141,1.82313 c -3.74398,2.17982 -16.16847,6.54253 -19.09879,6.70634 -2.01102,0.10493 -2.01355,0.12493 -0.0717,0.566 5.9169,1.32551 12.94565,3.95115 20.55415,7.67737 6.99703,3.42675 10.2275,5.8789 18.04783,13.69914 8.15965,8.15952 10.18998,10.89091 14.16162,19.05039 6.52948,13.41487 7.40079,17.32992 7.36363,33.08753 -0.0251,11.3485 -0.40234,14.65593 -2.32226,20.46777 -4.366,13.21448 -9.53274,21.72502 -18.83901,31.03127 -9.30918,9.30917 -18.36018,14.79258 -31.27494,18.94739 -9.67446,3.11235 -31.77658,3.11235 -41.45109,0 -13.05177,-4.19886 -22.81843,-10.15424 -32.0813,-19.56196 -6.08997,-6.18536 -6.76485,-6.47969 -4.48303,-1.95544 1.48451,2.94488 4.65037,17.76779 4.65037,21.77828 v 2.48622 h -74.19876 -74.19627 v -2.48626 c 0,-4.0105 3.16521,-18.8334 4.65041,-21.77825 2.36067,-4.68067 1.53562,-4.33775 -4.47136,1.85848 -9.01655,9.30076 -18.89862,15.40061 -31.567741,19.48568 -6.235606,2.01057 -24.995573,3.30726 -32.781051,2.2658 z m 94.862549,-58.74584 c 6.68142,-4.86761 18.75648,-10.56458 26.12163,-12.32401 7.54999,-1.80363 27.2137,-1.80363 34.76369,0 12.29577,2.93733 25.81203,10.81307 35.88463,20.90936 2.85611,2.86278 4.84723,4.29422 4.43595,3.18896 -3.43115,-9.22135 -3.96285,-12.69704 -3.98815,-26.06895 -0.0217,-11.98847 0.3105,-15.06145 2.27844,-21.05563 7.97775,-24.29079 26.44515,-42.55121 50.28842,-49.72503 l 7.51991,-2.26247 -7.18963,-1.76889 c -8.60494,-2.11711 -13.39912,-4.3961 -23.39125,-11.11977 -14.40231,-9.69104 -25.82171,-26.62211 -29.68966,-44.01954 -2.77344,-12.47419 -2.12948,-23.63822 2.27835,-39.49685 0.38066,-1.36946 -0.987,-0.526 -4.31407,2.66058 -6.33051,6.06334 -17.1253,12.88792 -25.86883,16.35451 -9.13994,3.62377 -18.79006,4.90805 -31.33913,4.17079 -9.54751,-0.56091 -12.5366,-1.26963 -22.8624,-5.42104 -6.24151,-2.50933 -17.55079,-9.96241 -22.91922,-15.10426 -3.32692,-3.18653 -4.69472,-4.03009 -4.31408,-2.66058 4.40781,15.85863 5.05184,27.02266 2.27843,39.49685 -4.71516,21.20783 -20.27825,40.69062 -40.5012,50.702 -3.21788,1.59308 -13.775123,5.02149 -17.76409,5.76897 -1.197637,0.22434 1.023269,1.30234 5.514586,2.6754 12.030194,3.67904 21.467534,9.46586 31.183254,19.12103 9.34056,9.28248 14.44699,17.30983 18.72445,29.43514 2.26008,6.40658 2.549,8.82736 2.59565,21.74753 0.0508,13.99845 -0.44727,17.35766 -3.93837,26.57024 -0.41782,1.10317 1.45584,-0.25449 4.16381,-3.01759 2.70804,-2.7626 7.23,-6.70312 10.04888,-8.75669 z m -6.13452,-35.04698 c -0.34019,-1.8212 -0.478,-12.66201 -0.306,-24.09072 0.30217,-20.07903 0.38945,-20.85635 2.59561,-23.06095 l 2.2829,-2.28161 40.83122,-0.305 c 22.45714,-0.16734 42.75813,-0.0251 45.11346,0.316 8.01685,1.16068 8.25079,1.89432 8.25079,25.84567 v 20.96568 l -3.11398,2.90898 c -3.0497,2.84884 -3.33438,2.90692 -13.78645,2.81266 -14.42395,-0.12333 -20.34838,-1.55082 -21.6267,-5.1856 -0.75,-2.13507 -0.617,-3.12835 0.58216,-4.32809 1.373,-1.37335 2.75249,-1.40784 11.62378,-0.30018 9.14138,1.14118 10.30896,1.09784 12.70429,-0.47216 l 2.63772,-1.72837 -0.27649,-15.75214 -0.27651,-15.75212 -36.09548,-0.27983 c -19.85255,-0.145 -37.10176,-0.0333 -38.33158,0.26434 -2.21483,0.53866 -2.23859,0.746 -2.50666,21.83656 l -0.27126,21.29226 -4.7073,0.30267 c -4.61409,0.29666 -4.71956,0.23817 -5.32595,-3.00802 z M 172.1246,259.9595 c -0.7715,-0.77149 -1.20333,-4.71103 -1.20333,-10.97232 0,-13.64586 -1.71148,-12.9067 29.22161,-12.61976 18.77531,0.1745 25.14028,0.54684 26.1256,1.53368 2.10689,2.10738 2.39256,17.70244 0.37984,20.77319 l -1.63068,2.4888 h -25.84528 c -18.76505,0 -26.17493,-0.32967 -27.04849,-1.2025 z m 45.72099,-7.01851 c 1.63182,-1.63217 1.52166,-6.30785 -0.18,-7.7216 -0.95467,-0.79217 -6.93673,-1.064 -19.30109,-0.874 l -17.91663,0.275 -0.32033,3.90853 c -0.20067,2.4491 0.17267,4.22179 1.00249,4.74732 2.16772,1.37534 35.3094,1.07267 36.71638,-0.3335 z M 167.2173,215.62668 c -2.69707,-2.32211 -2.81316,-2.79656 -2.81316,-11.50348 0,-8.11398 0.24345,-9.32467 2.28386,-11.36453 2.27775,-2.27694 2.36586,-2.28294 33.23293,-2.28294 37.71419,0 35.17022,-0.98484 35.17022,13.61843 0,14.74325 1.98817,13.95444 -35.17215,13.95444 h -29.88845 z m 58.65425,-11.36451 -0.30583,-4.76263 -25.81831,-0.26817 -25.81829,-0.26833 v 5.03021 5.03023 h 26.12393 26.12391 z m -78.76316,-19.96043 c -2.01806,-0.82167 -1.51946,-6.14623 0.68617,-7.32655 1.16873,-0.62483 10.73019,-1.03733 24.06359,-1.03733 h 22.1243 v -2.80746 c 0,-3.64276 1.66166,-5.21373 5.51463,-5.21373 3.85288,0 5.5146,1.57017 5.5146,5.21373 v 2.80747 h 22.368 c 24.70951,0 26.19111,0.32233 25.59458,5.56407 l -0.33618,2.95843 -52.13795,0.17633 c -28.67585,0.0933 -52.70185,-0.0516 -53.39121,-0.33384 z"
     id="path3" />
</svg>
